HIERARCHY
ROOT Hips
{
	OFFSET 0.000000 0.000000 0.000000
	CHANNELS 6 Xposition Yposition Zposition Xrotation Yrotation Zrotation
	JOINT LeftUpLeg_virtual
	{
		OFFSET 0.000000 0.000000 0.000000
		CHANNELS 3 Xrotation Yrotation Zrotation
		JOINT LeftUpLeg
		{
			OFFSET 11.394100 -6.187798 -0.413800
			CHANNELS 3 Xrotation Yrotation Zrotation
			JOINT LeftLeg
			{
				OFFSET 0.430247 -32.302673 3.732800
				CHANNELS 3 Xrotation Yrotation Zrotation
				JOINT LeftFoot
				{
					OFFSET -0.430247 -48.264931 -6.423300
					CHANNELS 3 Xrotation Yrotation Zrotation
					JOINT LeftToeBase
					{
						OFFSET 4.230900 -16.068199 23.438400
						CHANNELS 3 Xrotation Yrotation Zrotation
						JOINT LeftToe_End
						{
							OFFSET 4.510700 0.695400 19.974600
							CHANNELS 3 Xrotation Yrotation Zrotation
							End Site
							{
								OFFSET 0 0 0
							}
						}
					}
				}
			}
		}
	}
	JOINT RightUpLeg_virtual
	{
		OFFSET 0.000000 0.000000 0.000000
		CHANNELS 3 Xrotation Yrotation Zrotation
		JOINT RightUpLeg
		{
			OFFSET -11.333700 -6.187798 -0.413800
			CHANNELS 3 Xrotation Yrotation Zrotation
			JOINT RightLeg
			{
				OFFSET -0.430392 -32.302628 3.733000
				CHANNELS 3 Xrotation Yrotation Zrotation
				JOINT RightFoot
				{
					OFFSET 0.430392 -48.264973 -6.423500
					CHANNELS 3 Xrotation Yrotation Zrotation
					JOINT RightToeBase
					{
						OFFSET -4.230900 -16.068199 23.438400
						CHANNELS 3 Xrotation Yrotation Zrotation
						JOINT RightToe_End
						{
							OFFSET -4.510700 0.695400 19.974600
							CHANNELS 3 Xrotation Yrotation Zrotation
							End Site
							{
								OFFSET 0 0 0
							}
						}
					}
				}
			}
		}
	}
	JOINT Spine_virtual
	{
		OFFSET 0.000000 0.000000 0.000000
		CHANNELS 3 Xrotation Yrotation Zrotation
		JOINT Spine
		{
			OFFSET -0.002400 12.777504 0.315300
			CHANNELS 3 Xrotation Yrotation Zrotation
			JOINT Spine1
			{
				OFFSET -0.002067 5.816869 0.032633
				CHANNELS 3 Xrotation Yrotation Zrotation
				JOINT Spine1_split
				{
					OFFSET -0.002067 5.816869 0.032633
					CHANNELS 3 Xrotation Yrotation Zrotation
					JOINT Spine2
					{
						OFFSET -0.002067 5.816869 0.032633
						CHANNELS 3 Xrotation Yrotation Zrotation
						JOINT Neck_virtual
						{
							OFFSET 0.000000 0.000000 0.000000
							CHANNELS 3 Xrotation Yrotation Zrotation
							JOINT Neck
							{
								OFFSET -0.003700 21.199493 -0.826900
								CHANNELS 3 Xrotation Yrotation Zrotation
								JOINT Head
								{
									OFFSET 0.000000 20.442200 4.834800
									CHANNELS 3 Xrotation Yrotation Zrotation
									JOINT HeadTop_End
									{
										OFFSET 0.000000 34.668396 4.968400
										CHANNELS 3 Xrotation Yrotation Zrotation
										End Site
										{
											OFFSET 0 0 0
										}
									}
								}
							}
						}
						JOINT LeftShoulder_virtual
						{
							OFFSET 0.000000 0.000000 0.000000
							CHANNELS 3 Xrotation Yrotation Zrotation
							JOINT LeftShoulder
							{
								OFFSET 3.288150 8.794197 -1.372250
								CHANNELS 3 Xrotation Yrotation Zrotation
								JOINT LeftShoulder_split
								{
									OFFSET 3.288150 8.794197 -1.372250
									CHANNELS 3 Xrotation Yrotation Zrotation
									JOINT LeftArm
									{
										OFFSET 11.953299 -2.279007 -0.146200
										CHANNELS 3 Xrotation Yrotation Zrotation
										JOINT LeftForeArm
										{
											OFFSET 18.448900 0.000000 0.000000
											CHANNELS 3 Xrotation Yrotation Zrotation
											JOINT LeftHand
											{
												OFFSET 29.527798 0.000000 0.000000
												CHANNELS 3 Xrotation Yrotation Zrotation
												End Site
												{
													OFFSET 0 0 0
												}
											}
										}
									}
								}
							}
						}
						JOINT RightShoulder_virtual
						{
							OFFSET 0.000000 0.000000 0.000000
							CHANNELS 3 Xrotation Yrotation Zrotation
							JOINT RightShoulder
							{
								OFFSET -3.249400 8.794197 -1.372250
								CHANNELS 3 Xrotation Yrotation Zrotation
								JOINT RightShoulder_split
								{
									OFFSET -3.249400 8.794197 -1.372250
									CHANNELS 3 Xrotation Yrotation Zrotation
									JOINT RightArm
									{
										OFFSET -11.953299 -2.279007 -0.146200
										CHANNELS 3 Xrotation Yrotation Zrotation
										JOINT RightForeArm
										{
											OFFSET -18.448900 0.000000 0.000000
											CHANNELS 3 Xrotation Yrotation Zrotation
											JOINT RightHand
											{
												OFFSET -29.527802 0.000000 0.000000
												CHANNELS 3 Xrotation Yrotation Zrotation
												End Site
												{
													OFFSET 0 0 0
												}
											}
										}
									}
								}
							}
						}
					}
				}
			}
		}
	}
}
MOTION
Frames: 10
Frame Time: 0.03333333
4.020087 91.190994 71.297760 0.000000 0.000000 0.000000 22.389997 7.556573 1.235110 12.438631 23.773911 -3.659847 2.213147 -2.610941 5.833153 -20.041438 5.727362 -14.640821 -7.450023 -4.221763 -17.598674 0.000000 0.000000 0.000000 23.354920 12.762991 0.190577 -51.066278 5.329807 3.842329 47.760501 -30.879842 -0.368450 -7.697565 -3.332091 11.238531 -0.559692 8.380006 -4.451500 0.000000 0.000000 0.000000 19.001552 12.609252 1.355026 1.090127 -6.162600 0.244182 2.732805 -1.651695 1.804614 0.074207 0.265219 -0.081442 0.000000 0.000000 0.000000 3.547242 0.789985 3.760252 1.318232 -5.367403 -11.510457 -1.961194 -57.322745 -8.020714 0.000000 0.000000 0.000000 6.296777 0.431976 1.341616 5.416797 -13.361700 -3.667012 10.671739 -9.113772 -1.465929 -57.069045 -10.056365 -22.722103 25.556642 -56.049086 29.402434 0.000000 0.000000 0.000000 7.278781 0.268811 1.849196 5.676597 6.108315 2.706044 17.033831 9.480924 0.785858 -57.197729 -3.527564 21.287567 48.147496 74.684785 -53.306082 0.000000 0.000000 0.000000 
3.958476 90.698517 71.791725 0.000000 0.000000 0.000000 22.715181 7.658145 1.219377 12.042987 23.567103 -3.445779 2.990757 -2.592803 5.797317 -20.347818 5.972724 -15.037218 -7.841393 -4.110168 -17.650554 0.000000 0.000000 0.000000 23.693286 12.630295 0.198867 -51.942110 5.009567 3.637553 49.141008 -30.686291 -0.117545 -8.023181 -3.381301 11.279964 -0.712073 8.396023 -4.473122 0.000000 0.000000 0.000000 19.554816 12.500373 1.328865 1.344887 -6.118507 0.327606 2.602168 -1.729058 1.838494 0.069956 0.272673 -0.077942 0.000000 0.000000 0.000000 3.376432 0.715165 3.792540 0.707102 -4.262832 -11.450351 -4.961261 -56.234658 -10.844179 0.000000 0.000000 0.000000 5.987208 0.349308 1.371555 5.355473 -13.426990 -2.745223 10.425315 -8.925053 -1.495606 -57.189348 -10.451926 -22.802127 25.873904 -55.953354 29.781954 0.000000 0.000000 0.000000 7.054773 0.219082 1.908822 5.461222 6.357178 2.550564 16.193818 8.931896 0.785612 -57.246869 -3.136391 21.924231 47.614526 74.941396 -53.194849 0.000000 0.000000 0.000000 
3.905294 90.219437 72.274986 0.000000 0.000000 0.000000 23.078869 7.788204 1.183350 11.631842 23.358257 -3.211476 3.738041 -2.569713 5.747176 -20.607333 6.183369 -15.407061 -8.305679 -3.993827 -17.703627 0.000000 0.000000 0.000000 24.069865 12.502011 0.197093 -52.782787 4.697392 3.426822 50.395383 -30.494107 0.093390 -8.351978 -3.431820 11.331616 -0.857437 8.414504 -4.461407 0.000000 0.000000 0.000000 20.145069 12.378071 1.297200 1.585741 -6.059884 0.412663 2.481145 -1.799075 1.894555 0.064847 0.277632 -0.074722 0.000000 0.000000 0.000000 3.226937 0.649368 3.836373 0.121237 -3.125352 -11.327887 -7.781054 -55.022235 -13.555908 0.000000 0.000000 0.000000 5.685499 0.271912 1.420792 5.285691 -13.568908 -1.809065 10.191418 -8.669026 -1.532203 -57.390794 -10.946697 -22.958118 26.001287 -55.753728 29.968503 0.000000 0.000000 0.000000 6.838577 0.177198 1.989146 5.219947 6.578993 2.386100 15.362219 8.339765 0.772540 -57.346794 -2.702054 22.632107 46.519315 75.167031 -52.565652 0.000000 0.000000 0.000000 
3.854835 89.744125 72.755005 0.000000 0.000000 0.000000 23.483478 7.903758 1.127454 11.214822 23.129648 -2.954405 4.470002 -2.552973 5.695703 -20.845621 6.366477 -15.765480 -8.795533 -3.880108 -17.762464 0.000000 0.000000 0.000000 24.488731 12.368030 0.176963 -53.588749 4.382744 3.216025 51.535020 -30.313715 0.277698 -8.713095 -3.480267 11.358992 -0.909532 8.441392 -4.431676 0.000000 0.000000 0.000000 20.766765 12.222963 1.251573 1.811905 -5.988336 0.501912 2.371406 -1.863074 1.972816 0.061108 0.276629 -0.070248 0.000000 0.000000 0.000000 3.102777 0.591753 3.894945 -0.450274 -1.959432 -11.159665 -10.421509 -53.696495 -16.158679 0.000000 0.000000 0.000000 5.394229 0.197072 1.489493 5.204354 -13.799174 -0.882360 9.965974 -8.366934 -1.600131 -57.647302 -11.553935 -23.152559 25.927231 -55.454029 29.945380 0.000000 0.000000 0.000000 6.627622 0.140580 2.092478 4.953946 6.773435 2.212025 14.564680 7.725001 0.736610 -57.459144 -2.220242 23.414660 44.862113 75.354076 -51.421530 0.000000 0.000000 0.000000 
3.806743 89.263039 73.234711 0.000000 0.000000 0.000000 23.925931 7.987154 1.055752 10.807265 22.854827 -2.679852 5.202022 -2.562252 5.658229 -21.096216 6.532031 -16.144544 -9.275634 -3.775154 -17.817209 0.000000 0.000000 0.000000 24.940675 12.206585 0.140836 -54.373019 4.059294 3.008592 52.615741 -30.142178 0.456244 -9.108489 -3.516025 11.357536 -0.849840 8.486559 -4.407504 0.000000 0.000000 0.000000 21.422578 12.027293 1.187388 2.027726 -5.907058 0.596291 2.274365 -1.921221 2.071067 0.057120 0.268177 -0.062748 0.000000 0.000000 0.000000 3.003870 0.540313 3.970963 -1.017764 -0.768496 -10.964238 -12.896497 -52.286604 -18.654123 0.000000 0.000000 0.000000 5.109910 0.125779 1.577941 5.110807 -14.121715 0.029640 9.765412 -8.043261 -1.693716 -57.922627 -12.265080 -23.330149 25.667579 -55.082347 29.730775 0.000000 0.000000 0.000000 6.420047 0.105314 2.217029 4.672643 6.932066 2.013493 13.799203 7.115555 0.691060 -57.547076 -1.692103 24.257571 42.790688 75.522904 -49.910822 0.000000 0.000000 0.000000 
3.768870 88.770660 73.714897 0.000000 0.000000 0.000000 24.401346 8.055083 0.966457 10.406059 22.506307 -2.394040 5.948851 -2.611552 5.647801 -21.371477 6.691498 -16.582770 -9.726244 -3.680367 -17.866243 0.000000 0.000000 0.000000 25.424090 12.021335 0.090361 -55.165928 3.725689 2.798884 53.685468 -29.966584 0.638827 -9.504196 -3.533954 11.361524 -0.762872 8.553033 -4.416532 0.000000 0.000000 0.000000 22.102325 11.810303 1.107879 2.240109 -5.822044 0.693079 2.185075 -1.977408 2.186654 0.055238 0.247606 -0.053478 0.000000 0.000000 0.000000 2.925384 0.493210 4.064683 -1.582733 0.445522 -10.755274 -15.227166 -50.827133 -21.043697 0.000000 0.000000 0.000000 4.828347 0.055650 1.683341 5.008091 -14.526533 0.927844 9.578396 -7.665462 -1.820793 -58.185043 -13.062277 -23.462093 25.272596 -54.670098 29.380380 0.000000 0.000000 0.000000 6.213432 0.067706 2.359581 4.383510 7.048374 1.793139 13.038831 6.515022 0.632549 -57.598432 -1.147140 25.138767 40.502964 75.707313 -48.226347 0.000000 0.000000 0.000000 
3.752863 88.262451 74.205597 0.000000 0.000000 0.000000 24.906664 8.125365 0.864428 9.994945 22.102161 -2.104443 6.715712 -2.702419 5.665910 -21.663195 6.851110 -17.103463 -10.186053 -3.589117 -17.897903 0.000000 0.000000 0.000000 25.937102 11.825604 0.028075 -56.010918 3.388576 2.575271 54.787587 -29.764230 0.830336 -9.870393 -3.534474 11.421390 -0.742678 8.634606 -4.476343 0.000000 0.000000 0.000000 22.811992 11.592307 1.016035 2.452597 -5.740342 0.786103 2.095012 -2.034664 2.315386 0.052986 0.220307 -0.044176 0.000000 0.000000 0.000000 2.854405 0.445148 4.173143 -2.147362 1.679890 -10.545715 -17.425599 -49.361388 -23.314426 0.000000 0.000000 0.000000 4.545223 -0.016174 1.803690 4.898179 -14.986601 1.807409 9.394272 -7.247151 -1.951038 -58.410016 -13.908001 -23.547880 24.842313 -54.282829 29.000164 0.000000 0.000000 0.000000 6.004066 0.024885 2.515808 4.092641 7.123102 1.564136 12.276098 5.922188 0.568842 -57.588392 -0.606368 26.030472 38.142652 75.925237 -46.506099 0.000000 0.000000 0.000000 
3.761588 87.735397 74.707520 0.000000 0.000000 0.000000 25.444756 8.219696 0.752204 9.570934 21.667698 -1.820635 7.494366 -2.812989 5.706963 -21.962887 7.018200 -17.679900 -10.688599 -3.496128 -17.913556 0.000000 0.000000 0.000000 26.486423 11.643355 -0.039181 -56.920778 3.065074 2.333273 55.953641 -29.534527 1.037293 -10.188249 -3.534325 11.551604 -0.823686 8.715162 -4.585766 0.000000 0.000000 0.000000 23.557662 11.402509 0.920253 2.663427 -5.666345 0.868814 1.996526 -2.094867 2.452977 0.049937 0.190614 -0.035647 0.000000 0.000000 0.000000 2.779928 0.392332 4.293171 -2.703455 2.933153 -10.340196 -19.501252 -47.930156 -25.453111 0.000000 0.000000 0.000000 4.251794 -0.091920 1.935053 4.782352 -15.473039 2.660059 9.232496 -6.805512 -2.052204 -58.602839 -14.768114 -23.619942 24.451370 -53.973985 28.670043 0.000000 0.000000 0.000000 5.786113 -0.025150 2.681955 3.806054 7.164292 1.347512 11.497152 5.349145 0.511224 -57.510186 -0.078262 26.907911 35.849470 76.199175 -44.874384 0.000000 0.000000 0.000000 
3.795273 87.189499 75.222305 0.000000 0.000000 0.000000 26.021988 8.330474 0.641318 9.126792 21.230767 -1.546977 8.274952 -2.918592 5.763301 -22.241290 7.199058 -18.278829 -11.212691 -3.399695 -17.932435 0.000000 0.000000 0.000000 27.081697 11.493993 -0.108861 -57.896597 2.762368 2.070186 57.193999 -29.300067 1.273873 -10.451703 -3.565965 11.722927 -0.973782 8.771626 -4.720920 0.000000 0.000000 0.000000 24.342055 11.254620 0.826754 2.866250 -5.600554 0.936154 1.886015 -2.160017 2.593711 0.046998 0.161766 -0.029002 0.000000 0.000000 0.000000 2.689212 0.333343 4.418931 -3.236596 4.201269 -10.131723 -21.464517 -46.556482 -27.451432 0.000000 0.000000 0.000000 3.944260 -0.172123 2.071779 4.659426 -15.956183 3.459819 9.096810 -6.357739 -2.130356 -58.766169 -15.610971 -23.716514 24.159644 -53.769216 28.447335 0.000000 0.000000 0.000000 5.549456 -0.081165 2.851998 3.524782 7.193603 1.167439 10.729497 4.798547 0.417361 -57.371875 0.449074 27.729690 33.719787 76.543417 -43.411405 0.000000 0.000000 0.000000 
3.850940 86.631287 75.745186 0.000000 0.000000 0.000000 26.647245 8.436049 0.541350 8.661492 20.823372 -1.284624 9.038015 -3.002430 5.820474 -22.478667 7.395189 -18.864889 -11.732736 -3.302489 -17.961337 0.000000 0.000000 0.000000 27.716546 11.372309 -0.172298 -58.930189 2.486284 1.788517 58.489355 -29.085486 1.543391 -10.675552 -3.652886 11.880999 -1.126001 8.791049 -4.855625 0.000000 0.000000 0.000000 25.181253 11.146567 0.738497 3.050099 -5.537957 0.987663 1.754352 -2.228455 2.729397 0.043431 0.136263 -0.025797 0.000000 0.000000 0.000000 2.572590 0.269296 4.541494 -3.738025 5.479392 -9.914375 -23.327587 -45.255256 -29.301863 0.000000 0.000000 0.000000 3.616406 -0.255815 2.205451 4.531163 -16.419630 4.202128 8.975354 -5.924980 -2.180062 -58.902882 -16.421861 -23.858763 23.963866 -53.671439 28.337120 0.000000 0.000000 0.000000 5.285211 -0.140404 3.017695 3.250470 7.219750 1.024330 9.986350 4.290441 0.320225 -57.189594 1.030235 28.441314 31.842209 76.979975 -42.189047 0.000000 0.000000 0.000000 
